<svg width="48" height="14" viewBox="0 0 48 14" fill="none" xmlns="http://www.w3.org/2000/svg">
<path d="M36.3672 4.35173C37.0155 4.35173 37.5048 4.47399 37.8473 4.70637C38.1898 4.93887 38.4346 5.30576 38.5813 5.8074C38.7281 6.30891 38.7892 6.99382 38.7892 7.87459V9.30588H35.6455V9.74615L35.6945 10.9572C35.7311 11.2263 35.7924 11.4221 35.8901 11.5443C35.9881 11.6667 36.147 11.7278 36.355 11.7278C36.6364 11.7278 36.8321 11.6178 36.9299 11.3977C37.04 11.1774 37.0889 10.8104 37.1011 10.3089L38.7281 10.4068C38.7403 10.4802 38.7403 10.578 38.7403 10.7003C38.7403 11.471 38.5323 12.046 38.1042 12.4251C37.676 12.8042 37.0889 13 36.3182 13C35.3886 13 34.7403 12.7065 34.3733 12.1316C34.0064 11.5566 33.8107 10.6513 33.8107 9.44039V7.96022C33.8522 5.88077 34.2179 4.35779 36.3672 4.35173ZM13.7494 4.51073V10.6392C13.7494 11.0062 13.786 11.2753 13.8717 11.4343C14.0454 11.7744 14.4956 11.6875 14.7402 11.5199C14.8814 11.4245 14.9953 11.2938 15.0705 11.1408V4.51062H16.942V12.8654H15.4741L15.3151 11.8378H15.2785C14.8748 12.6085 14.2753 12.9999 13.4803 12.9999C12.2565 12.9969 11.9571 12.1151 11.8858 11.2197L11.8811 11.1566C11.8723 11.0209 11.8671 10.8851 11.8656 10.7492V4.51073H13.7493H13.7494ZM23.4008 4.51073V10.6392C23.4008 11.0062 23.4375 11.2753 23.5231 11.4343C23.6969 11.7744 24.147 11.6875 24.3916 11.5199C24.5329 11.4245 24.6467 11.2938 24.7219 11.1408V4.51062H26.5934V12.8654H25.1255L24.9665 11.8378H24.9299C24.5263 12.6085 23.9267 12.9999 23.1317 12.9999C21.908 12.9969 21.6085 12.1151 21.5372 11.2197L21.5326 11.1566C21.5237 11.0209 21.5186 10.8851 21.517 10.7492V4.51073H23.4008ZM8.31813 4.35173C8.92977 4.35173 9.43129 4.47399 9.7983 4.73087C10.1652 4.98775 10.4466 5.37926 10.6178 5.91741C10.7891 6.45567 10.8747 7.17732 10.8747 8.07035V9.28126C10.8747 10.1743 10.7891 10.8838 10.6178 11.422C10.4466 11.9603 10.1774 12.3517 9.7983 12.6086C9.41916 12.8532 8.90527 12.9878 8.26925 12.9878C7.60861 13 7.09484 12.8655 6.7157 12.6209C6.33656 12.364 6.06731 11.9725 5.90842 11.4343C5.7493 10.8961 5.67592 10.1865 5.67592 9.29363V8.08248C5.67592 7.18945 5.76155 6.45555 5.94505 5.91729C6.12856 5.36689 6.40982 4.97539 6.80133 4.73087C7.19272 4.48612 7.69424 4.35161 8.31813 4.35161V4.35173ZM29.5293 1V5.40364H29.5415C29.7128 5.08563 29.9329 4.82874 30.2388 4.63299C30.5244 4.44094 30.8609 4.33872 31.2051 4.33948C31.6577 4.33948 32.0002 4.46174 32.2571 4.69412C32.514 4.93887 32.6975 5.31801 32.8075 5.84403C32.9143 6.35359 32.9749 7.05833 32.9787 7.94704L32.9788 8.03371V9.35476C32.9788 10.5902 32.8198 11.5077 32.5261 12.0948C32.2205 12.682 31.7556 12.9756 31.1195 12.9756C30.7648 12.9756 30.4467 12.89 30.1532 12.731C29.8936 12.5797 29.6783 12.3628 29.529 12.102L29.5048 12.0581H29.4682L29.2724 12.8532H27.7189V1.00012H29.5293V1ZM22.0429 1.42814V2.94482H20.1836V12.8654H18.3488V2.94494H16.4773V1.42825H22.0431L22.0429 1.42814ZM1.87156 1.42814L1.87273 1.4328C1.89058 1.51225 2.13789 2.61176 2.40994 3.89279L2.43141 3.99428L2.46384 4.14769L2.48553 4.2507L2.49638 4.30238L2.51808 4.40597L2.52893 4.45789L2.55051 4.56183L2.58201 4.71384C2.76575 5.60091 2.94109 6.49055 3.04596 7.12844H3.09496C3.1954 6.55623 3.34135 5.82396 3.49697 5.0763L3.5378 4.88101C3.55833 4.78325 3.57886 4.68549 3.59963 4.58796L3.63159 4.43665C3.84292 3.44585 4.06057 2.45641 4.28453 1.46839L4.28803 1.45264L4.29363 1.42814H6.16519L4 9.14687V12.8532H2.15294V9.15901H2.14069L0 1.42802L1.87156 1.42814ZM8.28138 5.64827C8.0245 5.64827 7.85324 5.7829 7.74323 6.06428C7.63311 6.34554 7.58423 6.77368 7.58423 7.37319V9.97865C7.58423 10.5903 7.63311 11.0428 7.73099 11.3121C7.82886 11.5811 8.01237 11.7157 8.28138 11.7157C8.53827 11.7157 8.72177 11.5811 8.8319 11.3121C8.94202 11.0428 8.9909 10.5903 8.9909 9.97865V7.37308C8.9909 6.77368 8.9419 6.33329 8.8319 6.06416C8.72177 5.7829 8.53827 5.64827 8.28138 5.64827ZM29.8595 5.89302C29.7105 6.03068 29.6044 6.20042 29.5413 6.41262L29.5293 6.45567V11.2018C29.6809 11.4587 29.8963 11.63 30.2754 11.6422C30.4712 11.6422 30.6301 11.5688 30.7526 11.4221C30.8748 11.2753 30.9605 11.0306 31.0093 10.6881C31.0563 10.3593 31.0808 9.90644 31.0827 9.32968V8.16822C31.0827 7.5077 31.0582 7.00618 31.0216 6.65142C30.9726 6.29666 30.9116 6.03978 30.8015 5.89302C30.5885 5.58714 30.1287 5.59088 29.8595 5.89302ZM36.3306 5.61164C36.1226 5.62389 35.9757 5.68502 35.8901 5.79515C35.7924 5.91741 35.7311 6.10091 35.6945 6.37004C35.6584 6.63369 35.6461 7.5553 35.6455 7.59216V8.19272H37.0155V7.66309V7.67324C37.0147 7.85838 37.0109 7.5658 37.0025 7.2066L37.0013 7.15831C36.9936 6.84263 36.9824 6.49067 36.9666 6.37004C36.9299 6.08866 36.8686 5.89291 36.7709 5.7829C36.673 5.67277 36.5262 5.61164 36.3305 5.61164H36.3306Z" fill="#8090B2"/>
</svg>
