<svg width="24" height="24" viewBox="0 0 24 24" fill="none" xmlns="http://www.w3.org/2000/svg">
<path d="M10 21C9.45 21 8.979 20.804 8.587 20.412C8.195 20.02 7.99934 19.5493 8 19V8.82501C8 8.55834 8.05434 8.30434 8.163 8.06301C8.27167 7.82168 8.41734 7.60901 8.6 7.42501L14.025 2.02501C14.275 1.79168 14.571 1.65001 14.913 1.60001C15.255 1.55001 15.584 1.60834 15.9 1.77501C16.2167 1.94168 16.446 2.17501 16.588 2.47501C16.73 2.77501 16.759 3.08334 16.675 3.40001L15.55 8.00001H21C21.5333 8.00001 22 8.20001 22.4 8.60001C22.8 9.00001 23 9.46668 23 10V12C23 12.1167 22.9873 12.2417 22.962 12.375C22.9367 12.5083 22.8993 12.6333 22.85 12.75L19.85 19.8C19.7 20.1333 19.45 20.4167 19.1 20.65C18.75 20.8833 18.3833 21 18 21H10ZM4 21C3.45 21 2.979 20.804 2.587 20.412C2.195 20.02 1.99934 19.5493 2 19V10C2 9.45001 2.196 8.97901 2.588 8.58701C2.98 8.19501 3.45067 7.99934 4 8.00001C4.55 8.00001 5.021 8.19601 5.413 8.58801C5.805 8.98001 6.00067 9.45068 6 10V19C6 19.55 5.804 20.021 5.412 20.413C5.02 20.805 4.54934 21.0007 4 21Z" fill="#56688F"/>
</svg>
