<svg width="24" height="24" viewBox="0 0 24 24" fill="none" xmlns="http://www.w3.org/2000/svg">
<path d="M3 16C2.46667 16 2 15.8 1.6 15.4C1.2 15 1 14.5333 1 14V12C1 11.8833 1.01233 11.7583 1.037 11.625C1.06167 11.4917 1.09933 11.3667 1.15 11.25L4.15 4.2C4.3 3.86667 4.55 3.58333 4.9 3.35C5.25 3.11667 5.61667 3 6 3H14C14.55 3 15.021 3.19567 15.413 3.587C15.805 3.97833 16.0007 4.44933 16 5V15.175C16 15.4417 15.9457 15.696 15.837 15.938C15.7283 16.18 15.5827 16.3923 15.4 16.575L9.975 21.975C9.725 22.2083 9.42933 22.35 9.088 22.4C8.74667 22.45 8.41733 22.3917 8.1 22.225C7.78333 22.0583 7.55433 21.825 7.413 21.525C7.27167 21.225 7.24233 20.9167 7.325 20.6L8.45 16H3ZM20 3C20.55 3 21.021 3.196 21.413 3.588C21.805 3.98 22.0007 4.45067 22 5V14C22 14.55 21.804 15.021 21.412 15.413C21.02 15.805 20.5493 16.0007 20 16C19.45 16 18.979 15.804 18.587 15.412C18.195 15.02 17.9993 14.5493 18 14V5C18 4.45 18.196 3.979 18.588 3.587C18.98 3.195 19.4507 2.99934 20 3Z" fill="#56688F"/>
</svg>
