<svg width="48" height="14" viewBox="0 0 48 14" fill="none" xmlns="http://www.w3.org/2000/svg">
<g clip-path="url(#clip0_14_21)">
<path fill-rule="evenodd" clip-rule="evenodd" d="M41.2769 4.82736L39.5874 3.13806H36.449V0.9653H33.7933V10.8622H36.449V5.79279H38.6211V10.8622H41.2769V4.82736ZM32.8284 3.13806H28.7247L27.0349 4.82736V9.17214L28.7247 10.8622H32.8284V8.20721H29.6899V5.79279H32.8284V3.13806ZM26.0694 3.13806H23.8973V0.9653H21.2415V9.17214L22.9313 10.8622H26.0694V8.20721H23.8973V5.79279H26.0694V3.13806ZM20.276 0.9653H17.621V2.17264H20.276V0.9653ZM20.276 3.13806H17.621V10.8621H20.276V3.13806ZM16.6555 3.13806H14.0002V8.20721H13.0349V3.13806H10.3796V8.20721H9.41442V3.13806H6.75871V10.8622H14.966L16.6555 9.17214V3.13806ZM5.79316 3.13806H3.6209V0.9653H0.965669V9.17214L2.65535 10.8622H5.79316V8.20721H3.6209V5.79279H5.79316V3.13806ZM42.2417 4.34453V11.5859L38.6211 14H36.2075V12.7927L34.5178 14H32.3456V12.7927L31.139 14H27.2767L26.0694 12.7927L25.8277 14H22.4489L21.0671 12.7927L20.9897 14H17.1598L17.0244 12.7927L15.9877 14H10.1379L8.93085 13.5172V14H5.79316L2.17226 11.827L0 9.6556V-1.45319e-07H4.58657L6.75871 2.17264H16.6555V-1.45319e-07H24.8624V2.17264H27.0349V3.37923L28.2423 2.17264H30.6556L32.8284 -1.45319e-07H37.4145V2.17264H40.0699L42.2417 4.34453Z" fill="#8090B2"/>
</g>
<defs>
<clipPath id="clip0_14_21">
<rect width="42.2417" height="14" fill="white"/>
</clipPath>
</defs>
</svg>
