<svg width="48" height="14" viewBox="0 0 48 14" fill="none" xmlns="http://www.w3.org/2000/svg">
<path d="M0 11.7556V8.13696C0 5.73374 1.71264 4.57817 3.74755 4.57817H4.72818V6.43813L3.86265 6.44734C3.29177 6.44734 2.8498 6.61308 2.52752 6.93995C2.20986 7.26222 2.05333 7.75944 2.05333 8.4224V11.7602L0 11.7556ZM5.60291 4.57356H7.67465V8.33032C7.67465 8.67101 7.70688 8.96105 7.77133 9.19585C7.84039 9.42604 7.93707 9.6102 8.06138 9.75752C8.19029 9.89564 8.34682 9.99232 8.52637 10.0568C8.71052 10.1166 8.91309 10.1442 9.14329 10.1442C9.35098 10.1462 9.55766 10.1151 9.7556 10.0522C9.93976 9.99232 10.0917 9.89564 10.216 9.75752C10.3449 9.6148 10.4462 9.42604 10.5106 9.19585C10.5751 8.96566 10.6119 8.67561 10.6119 8.33032V4.57817H12.6837V8.39938C12.6972 8.96845 12.6051 9.5351 12.412 10.0706C12.2553 10.4909 12.0031 10.8691 11.6754 11.1755C11.35 11.4624 10.9646 11.6732 10.5475 11.7924C10.1193 11.9213 9.64971 11.9858 9.14329 11.9858C8.63686 11.9858 8.16266 11.9213 7.7345 11.7924C7.31898 11.6726 6.93528 11.4618 6.61116 11.1755C6.2818 10.8696 6.02805 10.4914 5.86994 10.0706C5.69038 9.6102 5.60291 9.05773 5.60291 8.39938V4.57356ZM18.2958 7.89756V11.7648H20.3767V7.89756C20.4044 6.97678 20.8371 6.19413 21.7809 6.19413C22.6695 6.19413 23.0101 7.16094 23.0101 7.9436V11.7648H25.0819V8.13236C25.0819 5.88567 23.9539 4.34337 21.8454 4.34337C20.6806 4.34337 19.8795 4.76232 19.3363 5.3286C19.0102 4.99802 18.6184 4.73953 18.1862 4.56982C17.754 4.40011 17.291 4.32297 16.8271 4.34337C14.714 4.34337 13.5906 5.88567 13.5906 8.13236V11.7556H15.6624V7.93439C15.6624 7.15173 16.0031 6.18492 16.8916 6.18492C17.84 6.18492 18.2682 6.96758 18.2958 7.88835V7.89756ZM25.9336 7.93439C25.9336 10.5218 27.4621 11.9996 29.9482 11.9996C30.4729 12.0072 30.9935 11.9053 31.4767 11.7004C31.9186 11.5105 32.3167 11.2315 32.646 10.8809C32.9721 10.5269 33.2255 10.1124 33.3919 9.66084C33.5683 9.18343 33.6572 8.67813 33.6543 8.16919C33.658 7.66397 33.5723 7.16208 33.4011 6.68674C33.2409 6.23769 32.9937 5.82466 32.6737 5.47132C32.3501 5.1179 31.9566 4.83569 31.5181 4.64262C31.0326 4.43472 30.5084 4.3327 29.9804 4.34337C29.5661 4.34337 29.1885 4.40322 28.8617 4.52292C28.5535 4.63305 28.2634 4.78819 28.0007 4.98331V2H25.9336V7.93439ZM31.4444 7.3589C31.5411 7.60291 31.5918 7.86533 31.5918 8.16458C31.5918 8.46383 31.5457 8.73546 31.4444 8.97947C31.3535 9.21391 31.2174 9.42821 31.0439 9.6102C30.8784 9.78666 30.6776 9.92627 30.4546 10.0199C29.9945 10.2092 29.4783 10.2092 29.0182 10.0199C28.7995 9.92494 28.6011 9.78898 28.4335 9.61941C28.263 9.43597 28.1287 9.22197 28.0376 8.98868C27.9417 8.7231 27.8949 8.4423 27.8995 8.15998C27.8946 7.63369 28.0867 7.12461 28.4381 6.73278C28.6051 6.5615 28.8057 6.42669 29.0274 6.33685C29.2557 6.23887 29.5017 6.18873 29.7502 6.18952C30.1189 6.18518 30.4799 6.29532 30.7833 6.50477C31.0867 6.71421 31.3177 7.01264 31.4444 7.3589ZM34.437 2H36.5087V11.7602H34.437V2ZM37.5768 6.69595C37.3885 7.16576 37.2931 7.66765 37.296 8.17379C37.2919 8.6811 37.3857 9.18444 37.5722 9.65624C37.7589 10.1076 38.0309 10.5187 38.3733 10.8671C38.7185 11.2202 39.1299 11.5018 39.5841 11.6958C40.0583 11.8891 40.5785 11.9904 41.1402 11.9904C41.593 11.9977 42.0435 11.9244 42.4707 11.774C42.8543 11.6426 43.2148 11.4515 43.5388 11.2077C43.8365 10.9823 44.0974 10.712 44.3123 10.4067C44.5162 10.123 44.6747 9.80923 44.7819 9.47669H42.549C42.4247 9.69767 42.2451 9.88183 42.0011 10.0245C41.7849 10.1461 41.5447 10.219 41.2974 10.238C41.0501 10.2571 40.8016 10.222 40.5693 10.135C40.3795 10.0651 40.201 9.96735 40.0399 9.845C39.7021 9.5694 39.4603 9.19386 39.3493 8.77229H44.9614C44.9914 8.57412 45.0083 8.37419 45.012 8.17379C45.0162 7.6656 44.9192 7.16166 44.7266 6.69134C44.5451 6.23372 44.2728 5.81754 43.9263 5.46784C43.5798 5.11813 43.1661 4.84213 42.7101 4.65643C42.2146 4.44905 41.6819 4.34562 41.1448 4.35258C40.5785 4.35258 40.0583 4.45386 39.5841 4.65643C39.1272 4.84618 38.7125 5.12472 38.3641 5.47592C38.0238 5.82497 37.7562 6.2381 37.5768 6.69134V6.69595ZM40.0629 6.38749C40.378 6.15464 40.7624 6.03463 41.154 6.0468C41.573 6.0468 41.9228 6.1619 42.2037 6.3967C42.4799 6.62229 42.6871 6.91693 42.816 7.28064H39.4091C39.5473 6.91233 39.7636 6.61308 40.0583 6.38749H40.0629Z" fill="#8090B2"/>
</svg>
