<svg width="24" height="24" viewBox="0 0 24 24" fill="none" xmlns="http://www.w3.org/2000/svg">
<g clip-path="url(#clip0_14_37)">
<path fill-rule="evenodd" clip-rule="evenodd" d="M20.4372 6.36967C20.6737 6.60618 20.8065 6.92691 20.8065 7.26132C20.8065 7.59574 20.6737 7.91647 20.4372 8.15297L10.9843 17.6059C10.8594 17.7308 10.7111 17.8299 10.5478 17.8976C10.3846 17.9652 10.2097 18 10.033 18C9.85628 18 9.68133 17.9652 9.51809 17.8976C9.35486 17.8299 9.20655 17.7308 9.08163 17.6059L4.38502 12.9101C4.26457 12.7938 4.16849 12.6546 4.10239 12.5007C4.03629 12.3469 4.0015 12.1814 4.00005 12.0139C3.99859 11.8465 4.0305 11.6804 4.09392 11.5254C4.15733 11.3704 4.25097 11.2296 4.36939 11.1112C4.4878 10.9928 4.62862 10.8991 4.78361 10.8357C4.9386 10.7723 5.10467 10.7404 5.27213 10.7418C5.43959 10.7433 5.60508 10.7781 5.75895 10.8442C5.91282 10.9103 6.05198 11.0064 6.16832 11.1268L10.0325 14.991L18.6531 6.36967C18.7702 6.25248 18.9093 6.15951 19.0623 6.09608C19.2154 6.03265 19.3795 6 19.5451 6C19.7108 6 19.8749 6.03265 20.028 6.09608C20.181 6.15951 20.3201 6.25248 20.4372 6.36967Z" fill="#BFC7D9"/>
</g>
<defs>
<clipPath id="clip0_14_37">
<rect width="24" height="24" fill="white"/>
</clipPath>
</defs>
</svg>
