<svg width="48" height="14" viewBox="0 0 48 14" fill="none" xmlns="http://www.w3.org/2000/svg">
<path d="M13.6857 2.00013V6.63635L16.0508 4.29016H18.923L15.938 7.19533L19.261 11.9997H16.7269L14.418 8.70343L13.6857 9.37433V11.944H11.3201V2.00013H13.6857ZM39.1989 2.00013V6.63635L41.5645 4.29016H44.4367L41.4517 7.19533L44.7749 12H42.2403L39.9309 8.70368L39.1989 9.37458V11.9442H36.833V2.00013H39.1989ZM31.3137 3.84336C33.5844 3.84336 35.4255 5.66961 35.4255 7.92174C35.4255 10.174 33.5844 11.9999 31.3137 11.9999H31.2576C28.9869 11.9999 27.146 10.174 27.146 7.92174C27.146 5.66961 28.9869 3.84336 31.2576 3.84336H31.3137ZM7.49068 2.00013L6.81471 4.1231H4.84371V11.9441H2.42135V4.06733H0V2H7.49056L7.49068 2.00013ZM27.3154 2.00013L26.6397 4.1231H24.6687V11.9441H22.2463V4.06733H19.825V2L27.3154 2.00013ZM10.3061 5.18453V11.9442H7.94142V5.18453H10.3061ZM31.2862 5.93883C30.1819 5.93883 29.2863 6.82622 29.2863 7.92174C29.2863 9.01726 30.1819 9.90504 31.2862 9.90529C32.3898 9.90529 33.2853 9.01726 33.2853 7.92174C33.2853 6.82622 32.3898 5.93883 31.2862 5.93883ZM9.12325 2.00013C9.77692 2.00013 10.3061 2.52552 10.3061 3.17322C10.3061 3.82092 9.7773 4.34631 9.12325 4.34631C8.4701 4.34606 7.94142 3.82105 7.94142 3.17322C7.94142 2.52552 8.4701 2.00013 9.12325 2.00013Z" fill="#8090B2"/>
</svg>
