<svg width="90" height="24" viewBox="0 0 90 24" fill="none" xmlns="http://www.w3.org/2000/svg">
<g clip-path="url(#clip0_14_25)">
<path fill-rule="evenodd" clip-rule="evenodd" d="M70.7603 8.27548L67.8642 5.37953H62.484V1.6548H57.9313V18.6209H62.484V9.93049H66.2077V18.6209H70.7603V8.27548ZM56.2772 5.37953H49.2424L46.3456 8.27548V15.7237L49.2424 18.6209H56.2772V14.0695H50.897V9.93049H56.2772V5.37953ZM44.6904 5.37953H40.9667V1.6548H36.4141V15.7237L39.3109 18.6209H44.6904V14.0695H40.9667V9.93049H44.6904V5.37953ZM34.7588 1.6548H30.2075V3.72452H34.7588V1.6548ZM34.7588 5.37953H30.2075V18.6207H34.7588V5.37953ZM28.5522 5.37953H24.0004V14.0695H22.3456V5.37953H17.7936V14.0695H16.139V5.37953H11.5864V18.6209H25.6561L28.5522 15.7237V5.37953ZM9.93113 5.37953H6.20725V1.6548H1.65543V15.7237L4.55202 18.6209H9.93113V14.0695H6.20725V9.93049H9.93113V5.37953ZM72.4143 7.44777V19.8616L66.2077 24H62.0699V21.9303L59.1733 24H55.4497V21.9303L53.3812 24H46.7601L44.6904 21.9303L44.2761 24H38.4838L36.115 21.9303L35.9824 24H29.4169L29.1847 21.9303L27.4074 24H17.3793L15.31 23.1723V24H9.93113L3.72388 20.2748L0 16.5524V0H7.86268L11.5864 3.72452H28.5522V0H42.6213V3.72452H46.3456V5.79297L48.4153 3.72452H52.5524L56.2772 0H64.1392V3.72452H68.6913L72.4143 7.44777Z" fill="#BFC7D9"/>
</g>
<defs>
<clipPath id="clip0_14_25">
<rect width="72.4143" height="24" fill="white"/>
</clipPath>
</defs>
</svg>
