<svg width="128" height="128" viewBox="0 0 128 128" fill="none" xmlns="http://www.w3.org/2000/svg">
<path d="M111.787 98.1333C106.667 100.693 99.84 98.9867 96.4267 93.8667L87.04 81.92H40.96L31.5733 93.8667C27.3067 99.84 19.6267 100.693 13.6533 96.4267C9.38667 93.0133 7.68001 87.8933 8.53334 83.6267L14.5067 52.0533C16.2133 41.8133 25.6 34.1333 35.84 34.1333H59.7333V21.3333C59.7333 14.5067 64.8533 8.53333 71.68 8.53333H98.1333C100.693 8.53333 102.4 10.24 102.4 12.8C102.4 15.36 100.693 17.0667 98.1333 17.0667H72.5333C69.9733 17.0667 68.2667 18.7733 68.2667 20.48V34.1333H92.16C102.4 34.1333 111.787 41.8133 113.493 52.0533L119.467 83.6267C120.32 89.6 117.76 95.5733 111.787 98.1333ZM51.2 55.4667C51.2 48.64 45.2267 42.6667 38.4 42.6667C31.5733 42.6667 25.6 48.64 25.6 55.4667C25.6 62.2933 31.5733 68.2667 38.4 68.2667C45.2267 68.2667 51.2 62.2933 51.2 55.4667ZM102.4 55.4667C102.4 52.9067 100.693 51.2 98.1333 51.2H93.8667V46.9333C93.8667 44.3733 92.16 42.6667 89.6 42.6667C87.04 42.6667 85.3333 44.3733 85.3333 46.9333V51.2H81.0667C78.5067 51.2 76.8 52.9067 76.8 55.4667C76.8 58.0267 78.5067 59.7333 81.0667 59.7333H85.3333V64C85.3333 66.56 87.04 68.2667 89.6 68.2667C92.16 68.2667 93.8667 66.56 93.8667 64V59.7333H98.1333C100.693 59.7333 102.4 58.0267 102.4 55.4667Z" fill="#8090B2"/>
</svg>
