<svg width="90" height="24" viewBox="0 0 90 24" fill="none" xmlns="http://www.w3.org/2000/svg">
<path d="M27.3714 2.00025V11.2727L32.1016 6.58032H37.846L31.8759 12.3907L38.5221 21.9995H33.4537L28.8359 15.4068L27.3714 16.7487V21.888H22.6403V2.00025H27.3714ZM78.3979 2.00025V11.2727L83.129 6.58032H88.8734L82.9034 12.3907L89.5498 22H84.4807L79.8618 15.4074L78.3979 16.7492V21.8885H73.6659V2.00025H78.3979ZM62.6273 5.68672C67.1689 5.68672 70.851 9.33921 70.851 13.8435C70.851 18.348 67.1689 21.9998 62.6273 21.9998H62.5153C57.9737 21.9998 54.2921 18.348 54.2921 13.8435C54.2921 9.33921 57.9737 5.68672 62.5153 5.68672H62.6273ZM14.9814 2.00025L13.6294 6.2462H9.68743V21.8882H4.8427V6.13466H0V2H14.9811L14.9814 2.00025ZM54.6308 2.00025L53.2793 6.2462H49.3373V21.8882H44.4926V6.13466H39.6499V2L54.6308 2.00025ZM20.6122 8.36905V21.8885H15.8828V8.36905H20.6122ZM62.5723 9.87766C60.3638 9.87766 58.5725 11.6524 58.5725 13.8435C58.5725 16.0345 60.3638 17.8101 62.5723 17.8106C64.7796 17.8106 66.5706 16.0345 66.5706 13.8435C66.5706 11.6524 64.7796 9.87766 62.5723 9.87766ZM18.2465 2.00025C19.5538 2.00025 20.6122 3.05103 20.6122 4.34644C20.6122 5.64185 19.5546 6.69263 18.2465 6.69263C16.9402 6.69212 15.8828 5.6421 15.8828 4.34644C15.8828 3.05103 16.9402 2.00025 18.2465 2.00025Z" fill="#BFC7D9"/>
</svg>
