<svg width="90" height="24" viewBox="0 0 90 24" fill="none" xmlns="http://www.w3.org/2000/svg">
<g clip-path="url(#clip0_14_24)">
<path d="M0 21.5112V14.2739C0 9.46748 3.42528 7.15634 7.4951 7.15634H9.45635V10.8763L7.72529 10.8947C6.58353 10.8947 5.69959 11.2262 5.05505 11.8799C4.41971 12.5244 4.10665 13.5189 4.10665 14.8448V21.5204L0 21.5112ZM11.2058 7.14713H15.3493V14.6606C15.3493 15.342 15.4138 15.9221 15.5427 16.3917C15.6808 16.8521 15.8741 17.2204 16.1228 17.515C16.3806 17.7913 16.6936 17.9846 17.0527 18.1135C17.421 18.2332 17.8262 18.2885 18.2866 18.2885C18.702 18.2923 19.1153 18.2302 19.5112 18.1043C19.8795 17.9846 20.1834 17.7913 20.432 17.515C20.6898 17.2296 20.8924 16.8521 21.0213 16.3917C21.1502 15.9313 21.2238 15.3512 21.2238 14.6606V7.15634H25.3673V14.7988C25.3944 15.9369 25.2102 17.0702 24.8241 18.1412C24.5105 18.9818 24.0062 19.7383 23.3508 20.351C22.6999 20.9249 21.9293 21.3464 21.0949 21.5849C20.2386 21.8427 19.2994 21.9716 18.2866 21.9716C17.2737 21.9716 16.3253 21.8427 15.469 21.5849C14.638 21.3451 13.8706 20.9237 13.2223 20.351C12.5636 19.7392 12.0561 18.9827 11.7399 18.1412C11.3808 17.2204 11.2058 16.1155 11.2058 14.7988V7.14713ZM36.5916 13.7951V21.5296H40.7535V13.7951C40.8087 11.9536 41.6742 10.3883 43.5618 10.3883C45.3389 10.3883 46.0203 12.3219 46.0203 13.8872V21.5296H50.1638V14.2647C50.1638 9.77133 47.9079 6.68674 43.6907 6.68674C41.3612 6.68674 39.759 7.52465 38.6725 8.6572C38.0204 7.99604 37.2368 7.47906 36.3724 7.13964C35.508 6.80023 34.582 6.64594 33.6543 6.68674C29.4279 6.68674 27.1813 9.77133 27.1813 14.2647V21.5112H31.3247V13.8688C31.3247 12.3035 32.0061 10.3698 33.7832 10.3698C35.68 10.3698 36.5363 11.9352 36.5916 13.7767V13.7951ZM51.8672 13.8688C51.8672 19.0435 54.9242 21.9992 59.8964 21.9992C60.9459 22.0144 61.987 21.8105 62.9533 21.4007C63.8373 21.021 64.6335 20.463 65.2921 19.7617C65.9441 19.0538 66.4509 18.2248 66.7837 17.3217C67.1365 16.3669 67.3143 15.3563 67.3086 14.3384C67.316 13.3279 67.1446 12.3242 66.8022 11.3735C66.4819 10.4754 65.9875 9.64931 65.3473 8.94264C64.7003 8.23581 63.9132 7.67137 63.0362 7.28524C62.0653 6.86943 61.0168 6.6654 59.9608 6.68674C59.1321 6.68674 58.3771 6.80644 57.7233 7.04584C57.1071 7.2661 56.5268 7.57639 56.0015 7.96662V2H51.8672V13.8688ZM62.8889 12.7178C63.0822 13.2058 63.1835 13.7307 63.1835 14.3292C63.1835 14.9277 63.0914 15.4709 62.8889 15.9589C62.707 16.4278 62.4349 16.8564 62.0878 17.2204C61.7569 17.5733 61.3553 17.8525 60.9092 18.0399C59.989 18.4185 58.9566 18.4185 58.0364 18.0399C57.5991 17.8499 57.2022 17.578 56.867 17.2388C56.526 16.8719 56.2573 16.4439 56.0751 15.9774C55.8834 15.4462 55.7898 14.8846 55.7989 14.32C55.7892 13.2674 56.1735 12.2492 56.8762 11.4656C57.2102 11.123 57.6115 10.8534 58.0548 10.6737C58.5115 10.4777 59.0035 10.3775 59.5004 10.379C60.2378 10.3704 60.9597 10.5906 61.5666 11.0095C62.1735 11.4284 62.6355 12.0253 62.8889 12.7178ZM68.8739 2H73.0174V21.5204H68.8739V2ZM75.1536 11.3919C74.777 12.3315 74.5862 13.3353 74.5919 14.3476C74.5837 15.3622 74.7713 16.3689 75.1444 17.3125C75.5178 18.2152 76.0617 19.0374 76.7465 19.7341C77.437 20.4404 78.2599 21.0036 79.1682 21.3915C80.1166 21.7782 81.157 21.9808 82.2804 21.9808C83.186 21.9954 84.0871 21.8488 84.9414 21.548C85.7086 21.2853 86.4296 20.903 87.0776 20.4155C87.6729 19.9646 88.1947 19.4241 88.6245 18.8133C89.0325 18.246 89.3494 17.6185 89.5637 16.9534H85.0979C84.8493 17.3953 84.4902 17.7637 84.0022 18.0491C83.5698 18.2922 83.0895 18.4379 82.5948 18.4761C82.1002 18.5143 81.6032 18.444 81.1386 18.2701C80.7589 18.1302 80.402 17.9347 80.0797 17.69C79.4042 17.1388 78.9207 16.3877 78.6986 15.5446H89.9228C89.9828 15.1482 90.0166 14.7484 90.0241 14.3476C90.0324 13.3312 89.8383 12.3233 89.4532 11.3827C89.0901 10.4674 88.5457 9.63508 87.8526 8.93567C87.1595 8.23627 86.3321 7.68427 85.4202 7.31287C84.4293 6.89809 83.3637 6.69125 82.2896 6.70516C81.157 6.70516 80.1166 6.90773 79.1682 7.31287C78.2544 7.69235 77.425 8.24944 76.7281 8.95184C76.0476 9.64995 75.5124 10.4762 75.1536 11.3827V11.3919ZM80.1258 10.775C80.756 10.3093 81.5247 10.0693 82.308 10.0936C83.1459 10.0936 83.8457 10.3238 84.4074 10.7934C84.9598 11.2446 85.3742 11.8339 85.632 12.5613H78.8183C79.0945 11.8247 79.5273 11.2262 80.1166 10.775H80.1258Z" fill="#BFC7D9"/>
</g>
<defs>
<clipPath id="clip0_14_24">
<rect width="90" height="24" fill="white"/>
</clipPath>
</defs>
</svg>
