<svg width="128" height="128" viewBox="0 0 128 128" fill="none" xmlns="http://www.w3.org/2000/svg">
<path d="M64 10.6667C34.56 10.6667 10.6667 34.56 10.6667 64C10.6667 93.44 34.56 117.333 64 117.333C93.44 117.333 117.333 93.44 117.333 64C117.333 34.56 93.44 10.6667 64 10.6667ZM64 69.3334C61.0667 69.3334 58.6667 66.9334 58.6667 64V42.6667C58.6667 39.7334 61.0667 37.3334 64 37.3334C66.9333 37.3334 69.3333 39.7334 69.3333 42.6667V64C69.3333 66.9334 66.9333 69.3334 64 69.3334ZM69.3333 90.6667H58.6667V80H69.3333V90.6667Z" fill="#8090B2"/>
</svg>
