<svg width="90" height="24" viewBox="0 0 90 24" fill="none" xmlns="http://www.w3.org/2000/svg">
<path fill-rule="evenodd" clip-rule="evenodd" d="M0 2H6.42857V6.44444H8.57145V4.22222H10.7143V2H17.1428V8.66667H15V10.8889H12.8572V13.1111H15V15.3333H17.1428V22H10.7143V19.7778H8.57145V17.5556H6.42857V22H0V2ZM42.8572 2H49.2857V6.44444H51.4285V4.22222H53.5714V2H60V8.66667H57.8572V10.8889H55.7143V13.1111H57.8572V15.3333H60V22H53.5714V19.7778H51.4285V17.5556H49.2857V22H42.8572V2ZM19.2857 2H25.7143V22H19.2857V2ZM34.2857 2H30V4.22222H27.8572V19.7778H30V22H34.2857H40.7143V15.3333H34.2857V8.66667H40.7143V2H34.2857Z" fill="#BFC7D9"/>
</svg>
