<svg width="90" height="24" viewBox="0 0 90 24" fill="none" xmlns="http://www.w3.org/2000/svg">
<path d="M72.7345 6.70345C74.031 6.70345 75.0096 6.94797 75.6946 7.41274C76.3796 7.87774 76.8691 8.61153 77.1626 9.61479C77.4561 10.6178 77.5784 11.9876 77.5784 13.7492V16.6118H71.2909V17.4923L71.3889 19.9144C71.4622 20.4526 71.5847 20.8441 71.7802 21.0887C71.9762 21.3334 72.294 21.4557 72.71 21.4557C73.2728 21.4557 73.6643 21.2357 73.8598 20.7954C74.08 20.3549 74.1778 19.6209 74.2023 18.6178L77.4561 18.8136C77.4806 18.9603 77.4806 19.1561 77.4806 19.4006C77.4806 20.9419 77.0646 22.0919 76.2084 22.8502C75.3521 23.6085 74.1778 24 72.6365 24C70.7772 24 69.4806 23.413 68.7466 22.2632C68.0128 21.1132 67.6213 19.3026 67.6213 16.8808V13.9204C67.7044 9.76155 68.4358 6.71559 72.7345 6.70345ZM27.4988 7.02147V19.2783C27.4988 20.0124 27.5721 20.5506 27.7434 20.8686C28.0908 21.5488 28.9911 21.3749 29.4804 21.0399C29.7629 20.849 29.9906 20.5876 30.1409 20.2816V7.02123H33.884V23.7308H30.9482L30.6302 21.6757H30.5569C29.7497 23.217 28.5506 23.9998 26.9606 23.9998C24.5131 23.9937 23.9141 22.2303 23.7716 20.4393L23.7623 20.3131C23.7446 20.0419 23.7343 19.7702 23.7312 19.4984V7.02147H27.4986H27.4988ZM46.8017 7.02147V19.2783C46.8017 20.0124 46.8749 20.5506 47.0462 20.8686C47.3938 21.5488 48.294 21.3749 48.7833 21.0399C49.0657 20.849 49.2934 20.5876 49.4438 20.2816V7.02123H53.1869V23.7308H50.2511L49.933 21.6757H49.8598C49.0525 23.217 47.8535 23.9998 46.2634 23.9998C43.8159 23.9937 43.217 22.2303 43.0744 20.4393L43.0651 20.3131C43.0475 20.0419 43.0371 19.7702 43.0341 19.4984V7.02147H46.8017ZM16.6363 6.70345C17.8595 6.70345 18.8626 6.94797 19.5966 7.46174C20.3304 7.9755 20.8931 8.75852 21.2357 9.83481C21.5782 10.9113 21.7494 12.3546 21.7494 14.1407V16.5625C21.7494 18.3486 21.5782 19.7676 21.2357 20.8439C20.8931 21.9207 20.3549 22.7035 19.5966 23.2172C18.8383 23.7065 17.8105 23.9755 16.5385 23.9755C15.2172 24 14.1897 23.731 13.4314 23.2417C12.6731 22.728 12.1346 21.9449 11.8168 20.8686C11.4986 19.7921 11.3518 18.3731 11.3518 16.5873V14.165C11.3518 12.3789 11.5231 10.9111 11.8901 9.83458C12.2571 8.73378 12.8196 7.95077 13.6027 7.46174C14.3854 6.97224 15.3885 6.70322 16.6363 6.70322V6.70345ZM59.0586 0V8.80728H59.0831C59.4256 8.17126 59.8659 7.65749 60.4776 7.26598C61.0488 6.88188 61.7218 6.67744 62.4102 6.67895C63.3154 6.67895 64.0005 6.92347 64.5142 7.38824C65.028 7.87774 65.395 8.63602 65.615 9.68806C65.8285 10.7072 65.9498 12.1167 65.9573 13.8941L65.9576 14.0674V16.7095C65.9576 19.1804 65.6395 21.0154 65.0523 22.1897C64.441 23.364 63.5112 23.9512 62.2389 23.9512C61.5296 23.9512 60.8934 23.78 60.3064 23.462C59.7871 23.1594 59.3566 22.7255 59.0581 22.2039L59.0096 22.1162H58.9363L58.5448 23.7065H55.4377V0.000233412H59.0586V0ZM44.0859 0.856276V3.88964H40.3672V23.7308H36.6976V3.88987H32.9545V0.85651H44.0861L44.0859 0.856276ZM3.74312 0.856276L3.74545 0.865609C3.78115 1.0245 4.27578 3.22352 4.81988 5.78558L4.86281 5.98857L4.92767 6.29538L4.97107 6.5014L4.99277 6.60476L5.03617 6.81195L5.05787 6.91577L5.10103 7.12366L5.16403 7.42767C5.5315 9.20182 5.88217 10.9811 6.09193 12.2569H6.18992C6.39081 11.1125 6.68269 9.64792 6.99394 8.15259L7.0756 7.76202C7.11666 7.5665 7.15772 7.37098 7.19925 7.17592L7.26318 6.87331C7.68583 4.8917 8.12113 2.91282 8.56906 0.936771L8.57606 0.905273L8.58726 0.856276H12.3304L8 16.2937V23.7065H4.30588V16.318H4.28138L0 0.856043L3.74312 0.856276ZM16.5628 9.29655C16.049 9.29655 15.7065 9.56579 15.4865 10.1286C15.2662 10.6911 15.1685 11.5474 15.1685 12.7464V17.9573C15.1685 19.1806 15.2662 20.0856 15.462 20.6241C15.6577 21.1622 16.0247 21.4314 16.5628 21.4314C17.0765 21.4314 17.4435 21.1622 17.6638 20.6241C17.884 20.0856 17.9818 19.1806 17.9818 17.9573V12.7462C17.9818 11.5474 17.8838 10.6666 17.6638 10.1283C17.4435 9.5658 17.0765 9.29655 16.5628 9.29655ZM59.7191 9.78605C59.4209 10.0614 59.2088 10.4008 59.0826 10.8252L59.0586 10.9113V20.4036C59.3619 20.9174 59.7926 21.2599 60.5509 21.2844C60.9424 21.2844 61.2602 21.1377 61.5051 20.8441C61.7497 20.5506 61.9209 20.0611 62.0187 19.3761C62.1127 18.7186 62.1617 17.8129 62.1654 16.6594V14.3364C62.1654 13.0154 62.1164 12.0124 62.0432 11.3028C61.9452 10.5933 61.8232 10.0796 61.6029 9.78605C61.1771 9.17429 60.2574 9.18176 59.7191 9.78605ZM72.6612 9.22329C72.2452 9.24778 71.9515 9.37004 71.7802 9.59029C71.5847 9.83481 71.4622 10.2018 71.3889 10.7401C71.3169 11.2674 71.2921 13.1106 71.2909 13.1843V14.3854H74.031V13.3262V13.3465C74.0294 13.7168 74.0217 13.1316 74.0049 12.4132L74.0026 12.3166C73.9872 11.6853 73.9648 10.9813 73.9333 10.7401C73.8598 10.1773 73.7373 9.78581 73.5418 9.5658C73.346 9.34554 73.0525 9.22329 72.661 9.22329H72.6612Z" fill="#BFC7D9"/>
</svg>
