<svg width="48" height="14" viewBox="0 0 48 14" fill="none" xmlns="http://www.w3.org/2000/svg">
<path fill-rule="evenodd" clip-rule="evenodd" d="M0 1H3.85714V3.66667H5.14287V2.33333H6.42857V1H10.2857V5H9V6.33335H7.71431V7.66665H9V9H10.2857V13H6.42857V11.6667H5.14287V10.3333H3.85714V13H0V1ZM25.7143 1H29.5714V3.66667H30.8571V2.33333H32.1429V1H36V5H34.7143V6.33335H33.4286V7.66665H34.7143V9H36V13H32.1429V11.6667H30.8571V10.3333H29.5714V13H25.7143V1ZM11.5714 1H15.4286V13H11.5714V1ZM20.5714 1H18V2.33333H16.7143V11.6667H18V13H20.5714H24.4286V9H20.5714V5H24.4286V1H20.5714Z" fill="#8090B2"/>
</svg>
