<svg width="163" height="36" viewBox="0 0 163 36" fill="none" xmlns="http://www.w3.org/2000/svg">
<path d="M45.2 25.14C44.2267 25.14 43.3467 24.9733 42.56 24.64C41.7867 24.3067 41.1733 23.8267 40.72 23.2C40.2667 22.5733 40.0333 21.8333 40.02 20.98H43.02C43.06 21.5533 43.26 22.0067 43.62 22.34C43.9933 22.6733 44.5 22.84 45.14 22.84C45.7933 22.84 46.3067 22.6867 46.68 22.38C47.0533 22.06 47.24 21.6467 47.24 21.14C47.24 20.7267 47.1133 20.3867 46.86 20.12C46.6067 19.8533 46.2867 19.6467 45.9 19.5C45.5267 19.34 45.0067 19.1667 44.34 18.98C43.4333 18.7133 42.6933 18.4533 42.12 18.2C41.56 17.9333 41.0733 17.54 40.66 17.02C40.26 16.4867 40.06 15.78 40.06 14.9C40.06 14.0733 40.2667 13.3533 40.68 12.74C41.0933 12.1267 41.6733 11.66 42.42 11.34C43.1667 11.0067 44.02 10.84 44.98 10.84C46.42 10.84 47.5867 11.1933 48.48 11.9C49.3867 12.5933 49.8867 13.5667 49.98 14.82H46.9C46.8733 14.34 46.6667 13.9467 46.28 13.64C45.9067 13.32 45.4067 13.16 44.78 13.16C44.2333 13.16 43.7933 13.3 43.46 13.58C43.14 13.86 42.98 14.2667 42.98 14.8C42.98 15.1733 43.1 15.4867 43.34 15.74C43.5933 15.98 43.9 16.18 44.26 16.34C44.6333 16.4867 45.1533 16.66 45.82 16.86C46.7267 17.1267 47.4667 17.3933 48.04 17.66C48.6133 17.9267 49.1067 18.3267 49.52 18.86C49.9333 19.3933 50.14 20.0933 50.14 20.96C50.14 21.7067 49.9467 22.4 49.56 23.04C49.1733 23.68 48.6067 24.1933 47.86 24.58C47.1133 24.9533 46.2267 25.14 45.2 25.14ZM55.8275 16.22V21.58C55.8275 21.9533 55.9142 22.2267 56.0875 22.4C56.2742 22.56 56.5808 22.64 57.0075 22.64H58.3075V25H56.5475C54.1875 25 53.0075 23.8533 53.0075 21.56V16.22H51.6875V13.92H53.0075V11.18H55.8275V13.92H58.3075V16.22H55.8275ZM63.1214 15.64C63.4814 15.0533 63.9481 14.5933 64.5214 14.26C65.1081 13.9267 65.7747 13.76 66.5214 13.76V16.7H65.7814C64.9014 16.7 64.2347 16.9067 63.7814 17.32C63.3414 17.7333 63.1214 18.4533 63.1214 19.48V25H60.3214V13.92H63.1214V15.64ZM78.7073 19.22C78.7073 19.62 78.6807 19.98 78.6273 20.3H70.5273C70.594 21.1 70.874 21.7267 71.3673 22.18C71.8607 22.6333 72.4673 22.86 73.1873 22.86C74.2273 22.86 74.9673 22.4133 75.4073 21.52H78.4273C78.1073 22.5867 77.494 23.4667 76.5873 24.16C75.6807 24.84 74.5673 25.18 73.2473 25.18C72.1807 25.18 71.2207 24.9467 70.3673 24.48C69.5273 24 68.8673 23.3267 68.3873 22.46C67.9207 21.5933 67.6873 20.5933 67.6873 19.46C67.6873 18.3133 67.9207 17.3067 68.3873 16.44C68.854 15.5733 69.5073 14.9067 70.3473 14.44C71.1873 13.9733 72.154 13.74 73.2473 13.74C74.3007 13.74 75.2407 13.9667 76.0673 14.42C76.9073 14.8733 77.554 15.52 78.0073 16.36C78.474 17.1867 78.7073 18.14 78.7073 19.22ZM75.8073 18.42C75.794 17.7 75.534 17.1267 75.0273 16.7C74.5207 16.26 73.9007 16.04 73.1673 16.04C72.474 16.04 71.8873 16.2533 71.4073 16.68C70.9407 17.0933 70.654 17.6733 70.5473 18.42H75.8073ZM80.0311 19.42C80.0311 18.3 80.2511 17.3067 80.6911 16.44C81.1444 15.5733 81.7511 14.9067 82.5111 14.44C83.2844 13.9733 84.1444 13.74 85.0911 13.74C85.9178 13.74 86.6378 13.9067 87.2511 14.24C87.8778 14.5733 88.3778 14.9933 88.7511 15.5V13.92H91.5711V25H88.7511V23.38C88.3911 23.9 87.8911 24.3333 87.2511 24.68C86.6244 25.0133 85.8978 25.18 85.0711 25.18C84.1378 25.18 83.2844 24.94 82.5111 24.46C81.7511 23.98 81.1444 23.3067 80.6911 22.44C80.2511 21.56 80.0311 20.5533 80.0311 19.42ZM88.7511 19.46C88.7511 18.78 88.6178 18.2 88.3511 17.72C88.0844 17.2267 87.7244 16.8533 87.2711 16.6C86.8178 16.3333 86.3311 16.2 85.8111 16.2C85.2911 16.2 84.8111 16.3267 84.3711 16.58C83.9311 16.8333 83.5711 17.2067 83.2911 17.7C83.0244 18.18 82.8911 18.7533 82.8911 19.42C82.8911 20.0867 83.0244 20.6733 83.2911 21.18C83.5711 21.6733 83.9311 22.0533 84.3711 22.32C84.8244 22.5867 85.3044 22.72 85.8111 22.72C86.3311 22.72 86.8178 22.5933 87.2711 22.34C87.7244 22.0733 88.0844 21.7 88.3511 21.22C88.6178 20.7267 88.7511 20.14 88.7511 19.46ZM108.066 13.76C109.426 13.76 110.519 14.18 111.346 15.02C112.186 15.8467 112.606 17.0067 112.606 18.5V25H109.806V18.88C109.806 18.0133 109.586 17.3533 109.146 16.9C108.706 16.4333 108.106 16.2 107.346 16.2C106.586 16.2 105.979 16.4333 105.526 16.9C105.086 17.3533 104.866 18.0133 104.866 18.88V25H102.066V18.88C102.066 18.0133 101.846 17.3533 101.406 16.9C100.966 16.4333 100.366 16.2 99.6058 16.2C98.8324 16.2 98.2191 16.4333 97.7658 16.9C97.3258 17.3533 97.1058 18.0133 97.1058 18.88V25H94.3058V13.92H97.1058V15.26C97.4658 14.7933 97.9258 14.4267 98.4858 14.16C99.0591 13.8933 99.6858 13.76 100.366 13.76C101.232 13.76 102.006 13.9467 102.686 14.32C103.366 14.68 103.892 15.2 104.266 15.88C104.626 15.24 105.146 14.7267 105.826 14.34C106.519 13.9533 107.266 13.76 108.066 13.76ZM122.463 25L119.383 19.56H118.063V25H115.263V11.04H120.503C121.583 11.04 122.503 11.2333 123.263 11.62C124.023 11.9933 124.589 12.5067 124.963 13.16C125.349 13.8 125.543 14.52 125.543 15.32C125.543 16.24 125.276 17.0733 124.743 17.82C124.209 18.5533 123.416 19.06 122.363 19.34L125.703 25H122.463ZM118.063 17.46H120.403C121.163 17.46 121.729 17.28 122.103 16.92C122.476 16.5467 122.663 16.0333 122.663 15.38C122.663 14.74 122.476 14.2467 122.103 13.9C121.729 13.54 121.163 13.36 120.403 13.36H118.063V17.46ZM127.355 19.42C127.355 18.3 127.575 17.3067 128.015 16.44C128.469 15.5733 129.075 14.9067 129.835 14.44C130.609 13.9733 131.469 13.74 132.415 13.74C133.242 13.74 133.962 13.9067 134.575 14.24C135.202 14.5733 135.702 14.9933 136.075 15.5V13.92H138.895V25H136.075V23.38C135.715 23.9 135.215 24.3333 134.575 24.68C133.949 25.0133 133.222 25.18 132.395 25.18C131.462 25.18 130.609 24.94 129.835 24.46C129.075 23.98 128.469 23.3067 128.015 22.44C127.575 21.56 127.355 20.5533 127.355 19.42ZM136.075 19.46C136.075 18.78 135.942 18.2 135.675 17.72C135.409 17.2267 135.049 16.8533 134.595 16.6C134.142 16.3333 133.655 16.2 133.135 16.2C132.615 16.2 132.135 16.3267 131.695 16.58C131.255 16.8333 130.895 17.2067 130.615 17.7C130.349 18.18 130.215 18.7533 130.215 19.42C130.215 20.0867 130.349 20.6733 130.615 21.18C130.895 21.6733 131.255 22.0533 131.695 22.32C132.149 22.5867 132.629 22.72 133.135 22.72C133.655 22.72 134.142 22.5933 134.595 22.34C135.049 22.0733 135.409 21.7 135.675 21.22C135.942 20.7267 136.075 20.14 136.075 19.46ZM144.89 16.22V21.58C144.89 21.9533 144.977 22.2267 145.15 22.4C145.337 22.56 145.643 22.64 146.07 22.64H147.37V25H145.61C143.25 25 142.07 23.8533 142.07 21.56V16.22H140.75V13.92H142.07V11.18H144.89V13.92H147.37V16.22H144.89ZM159.684 19.22C159.684 19.62 159.657 19.98 159.604 20.3H151.504C151.571 21.1 151.851 21.7267 152.344 22.18C152.837 22.6333 153.444 22.86 154.164 22.86C155.204 22.86 155.944 22.4133 156.384 21.52H159.404C159.084 22.5867 158.471 23.4667 157.564 24.16C156.657 24.84 155.544 25.18 154.224 25.18C153.157 25.18 152.197 24.9467 151.344 24.48C150.504 24 149.844 23.3267 149.364 22.46C148.897 21.5933 148.664 20.5933 148.664 19.46C148.664 18.3133 148.897 17.3067 149.364 16.44C149.831 15.5733 150.484 14.9067 151.324 14.44C152.164 13.9733 153.131 13.74 154.224 13.74C155.277 13.74 156.217 13.9667 157.044 14.42C157.884 14.8733 158.531 15.52 158.984 16.36C159.451 17.1867 159.684 18.14 159.684 19.22ZM156.784 18.42C156.771 17.7 156.511 17.1267 156.004 16.7C155.497 16.26 154.877 16.04 154.144 16.04C153.451 16.04 152.864 16.2533 152.384 16.68C151.917 17.0933 151.631 17.6733 151.524 18.42H156.784Z" fill="#BFC7D9"/>
<path fill-rule="evenodd" clip-rule="evenodd" d="M0 18.75V17.25C0 12.3195 0 9.8535 1.362 8.193C1.61114 7.88947 1.88947 7.61114 2.193 7.362C3.855 6 6.318 6 11.25 6C16.1805 6 18.6465 6 20.307 7.362C20.6105 7.61114 20.8889 7.88947 21.138 8.193C22.191 9.4755 22.4295 11.2395 22.4835 14.25L23.4885 13.755C26.406 12.297 27.8655 11.5665 28.9335 12.2265C30 12.8865 30 14.5185 30 17.781V18.219C30 21.4815 30 23.1135 28.9335 23.7735C27.8655 24.4335 26.406 23.703 23.4885 22.2435L22.4835 21.75C22.4295 24.7605 22.191 26.5245 21.138 27.807C20.8889 28.1105 20.6105 28.3889 20.307 28.638C18.645 30 16.182 30 11.25 30C6.3195 30 3.8535 30 2.193 28.638C1.88947 28.3889 1.61114 28.1105 1.362 27.807C0 26.145 0 23.682 0 18.75ZM12.114 12.03C12.0084 11.9034 11.8763 11.8015 11.727 11.7316C11.5777 11.6617 11.4149 11.6255 11.25 11.6255C11.0851 11.6255 10.9223 11.6617 10.773 11.7316C10.6237 11.8015 10.4916 11.9034 10.386 12.03L6.636 16.53C6.53723 16.6429 6.46203 16.7744 6.41484 16.9168C6.36765 17.0592 6.34941 17.2096 6.36119 17.3591C6.37298 17.5087 6.41456 17.6544 6.48348 17.7876C6.5524 17.9208 6.64727 18.039 6.76251 18.135C6.87775 18.231 7.01103 18.303 7.15452 18.3468C7.298 18.3906 7.44879 18.4052 7.59801 18.3898C7.74723 18.3744 7.89186 18.3294 8.02341 18.2573C8.15496 18.1852 8.27076 18.0875 8.364 17.97L10.125 15.8565V23.25C10.125 23.5484 10.2435 23.8345 10.4545 24.0455C10.6655 24.2565 10.9516 24.375 11.25 24.375C11.5484 24.375 11.8345 24.2565 12.0455 24.0455C12.2565 23.8345 12.375 23.5484 12.375 23.25V15.858L14.136 17.97C14.3294 18.191 14.6015 18.3277 14.8943 18.3508C15.1871 18.3739 15.4773 18.2815 15.7029 18.0935C15.9285 17.9055 16.0717 17.6367 16.1018 17.3445C16.1319 17.0524 16.0465 16.7601 15.864 16.53L12.114 12.03Z" fill="#BFC7D9"/>
</svg>
