<svg width="122" height="36" viewBox="0 0 122 36" fill="none" xmlns="http://www.w3.org/2000/svg">
<g clip-path="url(#clip0_62_6)">
<g filter="url(#filter0_d_62_6)">
<path d="M6.2 25.14C5.22667 25.14 4.34667 24.9733 3.56 24.64C2.78667 24.3067 2.17333 23.8267 1.72 23.2C1.26667 22.5733 1.03333 21.8333 1.02 20.98H4.02C4.06 21.5533 4.26 22.0067 4.62 22.34C4.99333 22.6733 5.5 22.84 6.14 22.84C6.79333 22.84 7.30667 22.6867 7.68 22.38C8.05333 22.06 8.24 21.6467 8.24 21.14C8.24 20.7267 8.11333 20.3867 7.86 20.12C7.60667 19.8533 7.28667 19.6467 6.9 19.5C6.52667 19.34 6.00667 19.1667 5.34 18.98C4.43333 18.7133 3.69333 18.4533 3.12 18.2C2.56 17.9333 2.07333 17.54 1.66 17.02C1.26 16.4867 1.06 15.78 1.06 14.9C1.06 14.0733 1.26667 13.3533 1.68 12.74C2.09333 12.1267 2.67333 11.66 3.42 11.34C4.16667 11.0067 5.02 10.84 5.98 10.84C7.42 10.84 8.58667 11.1933 9.48 11.9C10.3867 12.5933 10.8867 13.5667 10.98 14.82H7.9C7.87333 14.34 7.66667 13.9467 7.28 13.64C6.90667 13.32 6.40667 13.16 5.78 13.16C5.23333 13.16 4.79333 13.3 4.46 13.58C4.14 13.86 3.98 14.2667 3.98 14.8C3.98 15.1733 4.1 15.4867 4.34 15.74C4.59333 15.98 4.9 16.18 5.26 16.34C5.63333 16.4867 6.15333 16.66 6.82 16.86C7.72667 17.1267 8.46667 17.3933 9.04 17.66C9.61333 17.9267 10.1067 18.3267 10.52 18.86C10.9333 19.3933 11.14 20.0933 11.14 20.96C11.14 21.7067 10.9467 22.4 10.56 23.04C10.1733 23.68 9.60667 24.1933 8.86 24.58C8.11333 24.9533 7.22667 25.14 6.2 25.14ZM16.8275 16.22V21.58C16.8275 21.9533 16.9142 22.2267 17.0875 22.4C17.2742 22.56 17.5808 22.64 18.0075 22.64H19.3075V25H17.5475C15.1875 25 14.0075 23.8533 14.0075 21.56V16.22H12.6875V13.92H14.0075V11.18H16.8275V13.92H19.3075V16.22H16.8275ZM24.1214 15.64C24.4814 15.0533 24.9481 14.5933 25.5214 14.26C26.1081 13.9267 26.7747 13.76 27.5214 13.76V16.7H26.7814C25.9014 16.7 25.2347 16.9067 24.7814 17.32C24.3414 17.7333 24.1214 18.4533 24.1214 19.48V25H21.3214V13.92H24.1214V15.64ZM39.7073 19.22C39.7073 19.62 39.6807 19.98 39.6273 20.3H31.5273C31.594 21.1 31.874 21.7267 32.3673 22.18C32.8607 22.6333 33.4673 22.86 34.1873 22.86C35.2273 22.86 35.9673 22.4133 36.4073 21.52H39.4273C39.1073 22.5867 38.494 23.4667 37.5873 24.16C36.6807 24.84 35.5673 25.18 34.2473 25.18C33.1807 25.18 32.2207 24.9467 31.3673 24.48C30.5273 24 29.8673 23.3267 29.3873 22.46C28.9207 21.5933 28.6873 20.5933 28.6873 19.46C28.6873 18.3133 28.9207 17.3067 29.3873 16.44C29.854 15.5733 30.5073 14.9067 31.3473 14.44C32.1873 13.9733 33.154 13.74 34.2473 13.74C35.3007 13.74 36.2407 13.9667 37.0673 14.42C37.9073 14.8733 38.554 15.52 39.0073 16.36C39.474 17.1867 39.7073 18.14 39.7073 19.22ZM36.8073 18.42C36.794 17.7 36.534 17.1267 36.0273 16.7C35.5207 16.26 34.9007 16.04 34.1673 16.04C33.474 16.04 32.8873 16.2533 32.4073 16.68C31.9407 17.0933 31.654 17.6733 31.5473 18.42H36.8073ZM41.0311 19.42C41.0311 18.3 41.2511 17.3067 41.6911 16.44C42.1444 15.5733 42.7511 14.9067 43.5111 14.44C44.2844 13.9733 45.1444 13.74 46.0911 13.74C46.9178 13.74 47.6378 13.9067 48.2511 14.24C48.8778 14.5733 49.3778 14.9933 49.7511 15.5V13.92H52.5711V25H49.7511V23.38C49.3911 23.9 48.8911 24.3333 48.2511 24.68C47.6244 25.0133 46.8978 25.18 46.0711 25.18C45.1378 25.18 44.2844 24.94 43.5111 24.46C42.7511 23.98 42.1444 23.3067 41.6911 22.44C41.2511 21.56 41.0311 20.5533 41.0311 19.42ZM49.7511 19.46C49.7511 18.78 49.6178 18.2 49.3511 17.72C49.0844 17.2267 48.7244 16.8533 48.2711 16.6C47.8178 16.3333 47.3311 16.2 46.8111 16.2C46.2911 16.2 45.8111 16.3267 45.3711 16.58C44.9311 16.8333 44.5711 17.2067 44.2911 17.7C44.0244 18.18 43.8911 18.7533 43.8911 19.42C43.8911 20.0867 44.0244 20.6733 44.2911 21.18C44.5711 21.6733 44.9311 22.0533 45.3711 22.32C45.8244 22.5867 46.3044 22.72 46.8111 22.72C47.3311 22.72 47.8178 22.5933 48.2711 22.34C48.7244 22.0733 49.0844 21.7 49.3511 21.22C49.6178 20.7267 49.7511 20.14 49.7511 19.46ZM69.0658 13.76C70.4258 13.76 71.5191 14.18 72.3458 15.02C73.1858 15.8467 73.6058 17.0067 73.6058 18.5V25H70.8058V18.88C70.8058 18.0133 70.5858 17.3533 70.1458 16.9C69.7058 16.4333 69.1058 16.2 68.3458 16.2C67.5858 16.2 66.9791 16.4333 66.5258 16.9C66.0858 17.3533 65.8658 18.0133 65.8658 18.88V25H63.0658V18.88C63.0658 18.0133 62.8458 17.3533 62.4058 16.9C61.9658 16.4333 61.3658 16.2 60.6058 16.2C59.8324 16.2 59.2191 16.4333 58.7658 16.9C58.3258 17.3533 58.1058 18.0133 58.1058 18.88V25H55.3058V13.92H58.1058V15.26C58.4658 14.7933 58.9258 14.4267 59.4858 14.16C60.0591 13.8933 60.6858 13.76 61.3658 13.76C62.2324 13.76 63.0058 13.9467 63.6858 14.32C64.3658 14.68 64.8924 15.2 65.2658 15.88C65.6258 15.24 66.1458 14.7267 66.8258 14.34C67.5191 13.9533 68.2658 13.76 69.0658 13.76ZM83.4628 25L80.3828 19.56H79.0628V25H76.2628V11.04H81.5028C82.5828 11.04 83.5028 11.2333 84.2628 11.62C85.0228 11.9933 85.5895 12.5067 85.9628 13.16C86.3495 13.8 86.5428 14.52 86.5428 15.32C86.5428 16.24 86.2761 17.0733 85.7428 17.82C85.2095 18.5533 84.4161 19.06 83.3628 19.34L86.7028 25H83.4628ZM79.0628 17.46H81.4028C82.1628 17.46 82.7295 17.28 83.1028 16.92C83.4761 16.5467 83.6628 16.0333 83.6628 15.38C83.6628 14.74 83.4761 14.2467 83.1028 13.9C82.7295 13.54 82.1628 13.36 81.4028 13.36H79.0628V17.46ZM88.3553 19.42C88.3553 18.3 88.5753 17.3067 89.0153 16.44C89.4686 15.5733 90.0753 14.9067 90.8353 14.44C91.6086 13.9733 92.4686 13.74 93.4153 13.74C94.242 13.74 94.962 13.9067 95.5753 14.24C96.202 14.5733 96.702 14.9933 97.0753 15.5V13.92H99.8953V25H97.0753V23.38C96.7153 23.9 96.2153 24.3333 95.5753 24.68C94.9486 25.0133 94.222 25.18 93.3953 25.18C92.462 25.18 91.6086 24.94 90.8353 24.46C90.0753 23.98 89.4686 23.3067 89.0153 22.44C88.5753 21.56 88.3553 20.5533 88.3553 19.42ZM97.0753 19.46C97.0753 18.78 96.942 18.2 96.6753 17.72C96.4086 17.2267 96.0486 16.8533 95.5953 16.6C95.142 16.3333 94.6553 16.2 94.1353 16.2C93.6153 16.2 93.1353 16.3267 92.6953 16.58C92.2553 16.8333 91.8953 17.2067 91.6153 17.7C91.3486 18.18 91.2153 18.7533 91.2153 19.42C91.2153 20.0867 91.3486 20.6733 91.6153 21.18C91.8953 21.6733 92.2553 22.0533 92.6953 22.32C93.1486 22.5867 93.6286 22.72 94.1353 22.72C94.6553 22.72 95.142 22.5933 95.5953 22.34C96.0486 22.0733 96.4086 21.7 96.6753 21.22C96.942 20.7267 97.0753 20.14 97.0753 19.46ZM105.89 16.22V21.58C105.89 21.9533 105.977 22.2267 106.15 22.4C106.337 22.56 106.643 22.64 107.07 22.64H108.37V25H106.61C104.25 25 103.07 23.8533 103.07 21.56V16.22H101.75V13.92H103.07V11.18H105.89V13.92H108.37V16.22H105.89ZM120.684 19.22C120.684 19.62 120.657 19.98 120.604 20.3H112.504C112.571 21.1 112.851 21.7267 113.344 22.18C113.837 22.6333 114.444 22.86 115.164 22.86C116.204 22.86 116.944 22.4133 117.384 21.52H120.404C120.084 22.5867 119.471 23.4667 118.564 24.16C117.657 24.84 116.544 25.18 115.224 25.18C114.157 25.18 113.197 24.9467 112.344 24.48C111.504 24 110.844 23.3267 110.364 22.46C109.897 21.5933 109.664 20.5933 109.664 19.46C109.664 18.3133 109.897 17.3067 110.364 16.44C110.831 15.5733 111.484 14.9067 112.324 14.44C113.164 13.9733 114.131 13.74 115.224 13.74C116.277 13.74 117.217 13.9667 118.044 14.42C118.884 14.8733 119.531 15.52 119.984 16.36C120.451 17.1867 120.684 18.14 120.684 19.22ZM117.784 18.42C117.771 17.7 117.511 17.1267 117.004 16.7C116.497 16.26 115.877 16.04 115.144 16.04C114.451 16.04 113.864 16.2533 113.384 16.68C112.917 17.0933 112.631 17.6733 112.524 18.42H117.784Z" fill="#BFC7D9"/>
</g>
</g>
<defs>
<filter id="filter0_d_62_6" x="-2.97998" y="10.84" width="127.664" height="22.34" filterUnits="userSpaceOnUse" color-interpolation-filters="sRGB">
<feFlood flood-opacity="0" result="BackgroundImageFix"/>
<feColorMatrix in="SourceAlpha" type="matrix" values="0 0 0 0 0 0 0 0 0 0 0 0 0 0 0 0 0 0 127 0" result="hardAlpha"/>
<feOffset dy="4"/>
<feGaussianBlur stdDeviation="2"/>
<feComposite in2="hardAlpha" operator="out"/>
<feColorMatrix type="matrix" values="0 0 0 0 0 0 0 0 0 0 0 0 0 0 0 0 0 0 0.25 0"/>
<feBlend mode="normal" in2="BackgroundImageFix" result="effect1_dropShadow_62_6"/>
<feBlend mode="normal" in="SourceGraphic" in2="effect1_dropShadow_62_6" result="shape"/>
</filter>
<clipPath id="clip0_62_6">
<rect width="122" height="36" fill="white"/>
</clipPath>
</defs>
</svg>
