<svg width="122" height="36" viewBox="0 0 122 36" fill="none" xmlns="http://www.w3.org/2000/svg">
<g clip-path="url(#clip0_62_6)">
<g filter="url(#filter0_d_62_6)">
<path d="M6.2 25.14C5.22667 25.14 4.34667 24.9733 3.56 24.64C2.78667 24.3067 2.17333 23.8267 1.72 23.2C1.26667 22.5733 1.03333 21.8333 1.02 20.98H4.02C4.06 21.5533 4.26 22.0067 4.62 22.34C4.99333 22.6733 5.5 22.84 6.14 22.84C6.79333 22.84 7.30667 22.6867 7.68 22.38C8.05333 22.06 8.24 21.6467 8.24 21.14C8.24 20.7267 8.11333 20.3867 7.86 20.12C7.60667 19.8533 7.28667 19.6467 6.9 19.5C6.52667 19.34 6.00667 19.1667 5.34 18.98C4.43333 18.7133 3.69333 18.4533 3.12 18.2C2.56 17.9333 2.07333 17.54 1.66 17.02C1.26 16.4867 1.06 15.78 1.06 14.9C1.06 14.0733 1.26667 13.3533 1.68 12.74C2.09333 12.1267 2.67333 11.66 3.42 11.34C4.16667 11.0067 5.02 10.84 5.98 10.84C7.42 10.84 8.58667 11.1933 9.48 11.9C10.3867 12.5933 10.8867 13.5667 10.98 14.82H7.9C7.87333 14.34 7.66667 13.9467 7.28 13.64C6.90667 13.32 6.40667 13.16 5.78 13.16C5.23333 13.16 4.79333 13.3 4.46 13.58C4.14 13.86 3.98 14.2667 3.98 14.8C3.98 15.1733 4.1 15.4867 4.34 15.74C4.59333 15.98 4.9 16.18 5.26 16.34C5.63333 16.4867 6.15333 16.66 6.82 16.86C7.72667 17.1267 8.46667 17.3933 9.04 17.66C9.61333 17.9267 10.1067 18.3267 10.52 18.86C10.9333 19.3933 11.14 20.0933 11.14 20.96C11.14 21.7067 10.9467 22.4 10.56 23.04C10.1733 23.68 9.60667 24.1933 8.86 24.58C8.11333 24.9533 7.22667 25.14 6.2 25.14ZM16.8275 16.22V21.58C16.8275 21.9533 16.9142 22.2267 17.0875 22.4C17.2742 22.56 17.5808 22.64 18.0075 22.64H19.3075V25H17.5475C15.1875 25 14.0075 23.8533 14.0075 21.56V16.22H12.6875V13.92H14.0075V11.18H16.8275V13.92H19.3075V16.22H16.8275ZM24.1214 15.64C24.4814 15.0533 24.9481 14.5933 25.5214 14.26C26.1081 13.9267 26.7747 13.76 27.5214 13.76V16.7H26.7814C25.9014 16.7 25.2347 16.9067 24.7814 17.32C24.3414 17.7333 24.1214 18.4533 24.1214 19.48V25H21.3214V13.92H24.1214V15.64ZM39.7073 19.22C39.7073 19.62 39.6807 19.98 39.6273 20.3H31.5273C31.594 21.1 31.874 21.7267 32.3673 22.18C32.8607 22.6333 33.4673 22.86 34.1873 22.86C35.2273 22.86 35.9673 22.4133 36.4073 21.52H39.4273C39.1073 22.5867 38.494 23.4667 37.5873 24.16C36.6807 24.84 35.5673 25.18 34.2473 25.18C33.1807 25.18 32.2207 24.9467 31.3673 24.48C30.5273 24 29.8673 23.3267 29.3873 22.46C28.9207 21.5933 28.6873 20.5933 28.6873 19.46C28.6873 18.3133 28.9207 17.3067 29.3873 16.44C29.854 15.5733 30.5073 14.9067 31.3473 14.44C32.1873 13.9733 33.154 13.74 34.2473 13.74C35.3007 13.74 36.2407 13.9667 37.0673 14.42C37.9073 14.8733 38.554 15.52 39.0073 16.36C39.474 17.1867 39.7073 18.14 39.7073 19.22ZM36.8073 18.42C36.794 17.7 36.534 17.1267 36.0273 16.7C35.5207 16.26 34.9007 16.04 34.1673 16.04C33.474 16.04 32.8873 16.2533 32.4073 16.68C31.9407 17.0933 31.654 17.6733 31.5473 18.42H36.8073ZM41.0311 19.42C41.0311 18.3 41.2511 17.3067 41.6911 16.44C42.1444 15.5733 42.7511 14.9067 43.5111 14.44C44.2844 13.9733 45.1444 13.74 46.0911 13.74C46.9178 13.74 47.6378 13.9067 48.2511 14.24C48.8778 14.5733 49.3778 14.9933 49.7511 15.5V13.92H52.5711V25H49.7511V23.38C49.3911 23.9 48.8911 24.3333 48.2511 24.68C47.6244 25.0133 46.8978 25.18 46.0711 25.18C45.1378 25.18 44.2844 24.94 43.5111 24.46C42.7511 23.98 42.1444 23.3067 41.6911 22.44C41.2511 21.56 41.0311 20.5533 41.0311 19.42ZM49.7511 19.46C49.7511 18.78 49.6178 18.2 49.3511 17.72C49.0844 17.2267 48.7244 16.8533 48.2711 16.6C47.8178 16.3333 47.3311 16.2 46.8111 16.2C46.2911 16.2 45.8111 16.3267 45.3711 16.58C44.9311 16.8333 44.5711 17.2067 44.2911 17.7C44.0244 18.18 43.8911 18.7533 43.8911 19.42C43.8911 20.0867 44.0244 20.6733 44.2911 21.18C44.5711 21.6733 44.9311 22.0533 45.3711 22.32C45.8244 22.5867 46.3044 22.72 46.8111 22.72C47.3311 22.72 47.8178 22.5933 48.2711 22.34C48.7244 22.0733 49.0844 21.7 49.3511 21.22C49.6178 20.7267 49.7511 20.14 49.7511 19.46ZM69.0658 13.76C70.4258 13.76 71.5191 14.18 72.3458 15.02C73.1858 15.8467 73.6058 17.0067 73.6058 18.5V25H70.8058V18.88C70.8058 18.0133 70.5858 17.3533 70.1458 16.9C69.7058 16.4333 69.1058 16.2 68.3458 16.2C67.5858 16.2 66.9791 16.4333 66.5258 16.9C66.0858 17.3533 65.8658 18.0133 65.8658 18.88V25H63.0658V18.88C63.0658 18.0133 62.8458 17.3533 62.4058 16.9C61.9658 16.4333 61.3658 16.2 60.6058 16.2C59.8324 16.2 59.2191 16.4333 58.7658 16.9C58.3258 17.3533 58.1058 18.0133 58.1058 18.88V25H55.3058V13.92H58.1058V15.26C58.4658 14.7933 58.9258 14.4267 59.4858 14.16C60.0591 13.8933 60.6858 13.76 61.3658 13.76C62.2324 13.76 63.0058 13.9467 63.6858 14.32C64.3658 14.68 64.8924 15.2 65.2658 15.88C65.6258 15.24 66.1458 14.7267 66.8258 14.34C67.5191 13.9533 68.2658 13.76 69.0658 13.76ZM88.8028 11.04L83.6828 25H80.2828L75.1628 11.04H78.1628L82.0028 22.14L85.8228 11.04H88.8028ZM95.4016 25.18C94.3349 25.18 93.3749 24.9467 92.5216 24.48C91.6682 24 90.9949 23.3267 90.5016 22.46C90.0216 21.5933 89.7816 20.5933 89.7816 19.46C89.7816 18.3267 90.0282 17.3267 90.5216 16.46C91.0282 15.5933 91.7149 14.9267 92.5816 14.46C93.4482 13.98 94.4149 13.74 95.4816 13.74C96.5482 13.74 97.5149 13.98 98.3816 14.46C99.2482 14.9267 99.9282 15.5933 100.422 16.46C100.928 17.3267 101.182 18.3267 101.182 19.46C101.182 20.5933 100.922 21.5933 100.402 22.46C99.8949 23.3267 99.2016 24 98.3216 24.48C97.4549 24.9467 96.4816 25.18 95.4016 25.18ZM95.4016 22.74C95.9082 22.74 96.3816 22.62 96.8216 22.38C97.2749 22.1267 97.6349 21.7533 97.9016 21.26C98.1682 20.7667 98.3016 20.1667 98.3016 19.46C98.3016 18.4067 98.0216 17.6 97.4616 17.04C96.9149 16.4667 96.2416 16.18 95.4416 16.18C94.6416 16.18 93.9682 16.4667 93.4216 17.04C92.8882 17.6 92.6216 18.4067 92.6216 19.46C92.6216 20.5133 92.8816 21.3267 93.4016 21.9C93.9349 22.46 94.6016 22.74 95.4016 22.74ZM106.495 16.22V21.58C106.495 21.9533 106.582 22.2267 106.755 22.4C106.942 22.56 107.249 22.64 107.675 22.64H108.975V25H107.215C104.855 25 103.675 23.8533 103.675 21.56V16.22H102.355V13.92H103.675V11.18H106.495V13.92H108.975V16.22H106.495ZM121.289 19.22C121.289 19.62 121.263 19.98 121.209 20.3H113.109C113.176 21.1 113.456 21.7267 113.949 22.18C114.443 22.6333 115.049 22.86 115.769 22.86C116.809 22.86 117.549 22.4133 117.989 21.52H121.009C120.689 22.5867 120.076 23.4667 119.169 24.16C118.263 24.84 117.149 25.18 115.829 25.18C114.763 25.18 113.803 24.9467 112.949 24.48C112.109 24 111.449 23.3267 110.969 22.46C110.503 21.5933 110.269 20.5933 110.269 19.46C110.269 18.3133 110.503 17.3067 110.969 16.44C111.436 15.5733 112.089 14.9067 112.929 14.44C113.769 13.9733 114.736 13.74 115.829 13.74C116.883 13.74 117.823 13.9667 118.649 14.42C119.489 14.8733 120.136 15.52 120.589 16.36C121.056 17.1867 121.289 18.14 121.289 19.22ZM118.389 18.42C118.376 17.7 118.116 17.1267 117.609 16.7C117.103 16.26 116.483 16.04 115.749 16.04C115.056 16.04 114.469 16.2533 113.989 16.68C113.523 17.0933 113.236 17.6733 113.129 18.42H118.389Z" fill="#BFC7D9"/>
</g>
</g>
<defs>
<filter id="filter0_d_62_6" x="-2.97998" y="10.84" width="128.269" height="22.34" filterUnits="userSpaceOnUse" color-interpolation-filters="sRGB">
<feFlood flood-opacity="0" result="BackgroundImageFix"/>
<feColorMatrix in="SourceAlpha" type="matrix" values="0 0 0 0 0 0 0 0 0 0 0 0 0 0 0 0 0 0 127 0" result="hardAlpha"/>
<feOffset dy="4"/>
<feGaussianBlur stdDeviation="2"/>
<feComposite in2="hardAlpha" operator="out"/>
<feColorMatrix type="matrix" values="0 0 0 0 0 0 0 0 0 0 0 0 0 0 0 0 0 0 0.25 0"/>
<feBlend mode="normal" in2="BackgroundImageFix" result="effect1_dropShadow_62_6"/>
<feBlend mode="normal" in="SourceGraphic" in2="effect1_dropShadow_62_6" result="shape"/>
</filter>
<clipPath id="clip0_62_6">
<rect width="122" height="36" fill="white"/>
</clipPath>
</defs>
</svg>
