<svg width="36" height="36" viewBox="0 0 36 36" fill="none" xmlns="http://www.w3.org/2000/svg">
<path fill-rule="evenodd" clip-rule="evenodd" d="M3 18.75V17.25C3 12.3195 3 9.8535 4.362 8.193C4.61114 7.88947 4.88947 7.61114 5.193 7.362C6.855 6 9.318 6 14.25 6C19.1805 6 21.6465 6 23.307 7.362C23.6105 7.61114 23.8889 7.88947 24.138 8.193C25.191 9.4755 25.4295 11.2395 25.4835 14.25L26.4885 13.755C29.406 12.297 30.8655 11.5665 31.9335 12.2265C33 12.8865 33 14.5185 33 17.781V18.219C33 21.4815 33 23.1135 31.9335 23.7735C30.8655 24.4335 29.406 23.703 26.4885 22.2435L25.4835 21.75C25.4295 24.7605 25.191 26.5245 24.138 27.807C23.8889 28.1105 23.6105 28.3889 23.307 28.638C21.645 30 19.182 30 14.25 30C9.3195 30 6.8535 30 5.193 28.638C4.88947 28.3889 4.61114 28.1105 4.362 27.807C3 26.145 3 23.682 3 18.75ZM15.114 12.03C15.0084 11.9034 14.8763 11.8015 14.727 11.7316C14.5777 11.6617 14.4149 11.6255 14.25 11.6255C14.0851 11.6255 13.9223 11.6617 13.773 11.7316C13.6237 11.8015 13.4916 11.9034 13.386 12.03L9.636 16.53C9.53723 16.6429 9.46203 16.7744 9.41484 16.9168C9.36765 17.0592 9.34941 17.2096 9.36119 17.3591C9.37298 17.5087 9.41456 17.6544 9.48348 17.7876C9.5524 17.9208 9.64727 18.039 9.76251 18.135C9.87775 18.231 10.011 18.303 10.1545 18.3468C10.298 18.3906 10.4488 18.4052 10.598 18.3898C10.7472 18.3744 10.8919 18.3294 11.0234 18.2573C11.155 18.1852 11.2708 18.0875 11.364 17.97L13.125 15.8565V23.25C13.125 23.5484 13.2435 23.8345 13.4545 24.0455C13.6655 24.2565 13.9516 24.375 14.25 24.375C14.5484 24.375 14.8345 24.2565 15.0455 24.0455C15.2565 23.8345 15.375 23.5484 15.375 23.25V15.858L17.136 17.97C17.3294 18.191 17.6015 18.3277 17.8943 18.3508C18.1871 18.3739 18.4773 18.2815 18.7029 18.0935C18.9285 17.9055 19.0717 17.6367 19.1018 17.3445C19.1319 17.0524 19.0465 16.7601 18.864 16.53L15.114 12.03Z" fill="#BFC7D9"/>
</svg>
